PathFileType	4	(X/Y/Z)	S1_rest_slow_left.trc
DataRate	CameraRate	NumFrames	NumMarkers	Units	OrigDataRate	OrigDataStartFrame	OrigNumFrames
250.00	250.00	18	18	mm	250.00	31661	36183
Frame#	Time	c7	r_should	l_should	clavicle	r_upa	r_elb_l	r_elb_m	r_low	r_wri_l	r_wri_m	r_met	l_upa	l_elb_l	l_elb_m	l_low	l_wri_l	l_wri_m	l_met
	X1	Y1	Z1	X2	Y2	Z2	X3	Y3	Z3	X4	Y4	Z4	X5	Y5	Z5	X6	Y6	Z6	X7	Y7	Z7	X8	Y8	Z8	X9	Y9	Z9	X10	Y10	Z10	X11	Y11	Z11	X12	Y12	Z12	X13	Y13	Z13	X14	Y14	Z14	X15	Y15	Z15	X16	Y16	Z16	X17	Y17	Z17	X18	Y18	Z18
31661	126.64000	946.58685	1416.65454	184.14360	1024.22229	1356.86572	345.66330	965.40680	1369.99194	13.40521	1087.63171	1310.05322	163.34734	1051.66272	1150.20581	413.16299	1051.92480	1067.52222	437.54703	987.51068	1030.08728	380.73352	1107.60144	948.41724	435.62796	1156.67212	839.56506	431.35126	1083.98328	814.22552	420.56049	1162.93958	760.82196	460.83444	1005.69604	1162.76733	-44.18190	1023.42438	1099.98035	-61.07166	1022.90204	1072.46143	39.88107	1102.86877	1150.04138	-50.34670	1165.56982	1227.57202	-39.80600	1172.82629	1219.20923	38.55758	1239.31897	1275.19995	-20.10667
31662	126.64400	946.61823	1416.65527	184.12952	1024.26953	1356.88672	345.65021	965.43250	1369.97131	13.38806	1087.66418	1310.05676	163.33653	1051.70874	1150.22205	413.16141	1051.96094	1067.51416	437.52313	987.54016	1030.10974	380.73917	1107.65051	948.43585	435.62961	1156.70386	839.58008	431.34375	1084.20056	814.00281	420.54672	1162.97913	760.84601	460.83325	1005.73730	1162.75122	-44.18063	1023.47180	1099.96533	-61.06897	1023.01477	1072.46326	39.90372	1102.91602	1150.03491	-50.34486	1165.62891	1227.54041	-39.78893	1172.86902	1219.20435	38.54399	1239.35974	1275.19641	-20.10031
31663	126.64800	946.65057	1416.65491	184.11815	1024.31787	1356.90674	345.63983	965.46014	1369.94897	13.37159	1087.69641	1310.05933	163.32666	1051.75525	1150.24414	413.15680	1052.00720	1067.53381	437.51196	987.57806	1030.13281	380.74881	1107.69690	948.45526	435.62247	1156.73621	839.59473	431.34076	1083.99133	814.35883	420.58725	1163.01660	760.86761	460.83652	1005.77393	1162.73413	-44.18305	1023.51428	1099.95422	-61.07460	1023.08679	1072.44922	39.90884	1102.96497	1150.03455	-50.35325	1165.68469	1227.51685	-39.79807	1172.91553	1219.18994	38.53075	1239.39563	1275.19653	-20.10276
31664	126.65200	946.68201	1416.65393	184.10194	1024.36414	1356.92139	345.62979	965.49030	1369.92578	13.35959	1087.72876	1310.06030	163.31654	1051.80188	1150.26550	413.15607	1052.05457	1067.55505	437.50943	987.62250	1030.15027	380.76099	1107.73926	948.47491	435.62491	1156.77124	839.61157	431.32901	1083.97900	814.45715	420.59976	1163.05627	760.88275	460.83896	1005.80597	1162.71753	-44.19028	1023.55859	1099.94128	-61.08099	1023.10870	1072.44165	39.89368	1103.00916	1150.02661	-50.36053	1165.72766	1227.51526	-39.79161	1172.94128	1219.18176	38.52699	1239.43286	1275.19702	-20.10674
31665	126.65600	946.71545	1416.65039	184.08551	1024.41382	1356.93005	345.61966	965.52069	1369.90820	13.35634	1087.76208	1310.06201	163.30751	1051.85339	1150.28296	413.15359	1052.10522	1067.57959	437.51706	987.66089	1030.16882	380.77509	1107.78381	948.48578	435.62286	1156.81055	839.62799	431.32620	1084.00952	814.50073	420.61002	1163.09827	760.89911	460.83896	1005.83423	1162.69812	-44.19787	1023.60297	1099.92358	-61.08311	1023.18683	1072.44543	39.91159	1103.04700	1150.01648	-50.35678	1165.76978	1227.49963	-39.79813	1172.99585	1219.18079	38.53237	1239.46960	1275.19177	-20.11081
31666	126.66000	946.75037	1416.64746	184.07678	1024.46082	1356.94312	345.61545	965.55035	1369.88965	13.35217	1087.79138	1310.06262	163.29184	1051.90210	1150.30188	413.15396	1052.14709	1067.59216	437.52582	987.69989	1030.18494	380.79266	1107.82642	948.49982	435.62573	1156.85291	839.64496	431.32663	1084.05627	814.52374	420.63379	1163.14270	760.91852	460.84631	1005.86047	1162.68018	-44.20629	1023.64410	1099.90771	-61.08614	1023.19763	1072.41199	39.91010	1103.08313	1150.01196	-50.36214	1165.82275	1227.47400	-39.79512	1173.03210	1219.17737	38.52149	1239.50549	1275.18359	-20.12039
31667	126.66400	946.78857	1416.64050	184.06621	1024.50635	1356.95349	345.61258	965.58258	1369.87305	13.34745	1087.81909	1310.05713	163.27902	1051.95142	1150.31873	413.15796	1052.23083	1067.69348	437.58197	987.74054	1030.19202	380.81210	1107.86450	948.51550	435.63739	1156.89026	839.65662	431.32529	1084.10168	814.53070	420.64960	1163.19543	760.93701	460.86163	1005.88904	1162.66370	-44.21298	1023.68500	1099.89624	-61.08995	1023.21960	1072.39648	39.92323	1103.11792	1149.99597	-50.36101	1165.87634	1227.46179	-39.79311	1173.10449	1219.16504	38.53958	1239.54187	1275.17249	-20.12856
31668	126.66800	946.83038	1416.63147	184.05540	1024.54712	1356.95544	345.59967	965.62006	1369.85229	13.33954	1087.85266	1310.04761	163.27364	1052.00342	1150.33032	413.16312	1052.37488	1067.90381	437.71756	987.78522	1030.19385	380.82422	1107.90491	948.51971	435.63907	1156.93018	839.66443	431.33099	1084.15979	814.54266	420.66519	1163.25366	760.94977	460.87924	1005.91663	1162.65137	-44.22146	1023.72491	1099.88635	-61.09794	1023.22876	1072.39172	39.91505	1103.14832	1149.98242	-50.37425	1165.93347	1227.44141	-39.79741	1173.14368	1219.16589	38.53388	1239.57507	1275.16077	-20.13808
31669	126.67200	946.86914	1416.62280	184.04822	1024.59326	1356.95337	345.59821	965.65747	1369.83875	13.33384	1087.88342	1310.04285	163.26768	1052.05603	1150.33264	413.16849	1052.44702	1067.95935	437.75830	987.83014	1030.19104	380.83679	1107.94446	948.52252	435.64502	1156.97449	839.66656	431.34314	1084.21228	814.55634	420.69315	1163.31055	760.95667	460.89478	1005.94055	1162.63977	-44.23183	1023.76233	1099.86658	-61.10234	1023.22949	1072.36365	39.90216	1103.18127	1149.97437	-50.38823	1165.96802	1227.44153	-39.81237	1173.17664	1219.15955	38.51660	1239.60547	1275.14392	-20.14733
31670	126.67600	946.90637	1416.61230	184.04243	1024.63269	1356.95129	345.59775	965.69397	1369.82983	13.33185	1087.91357	1310.03357	163.25941	1052.10156	1150.32788	413.17325	1052.49072	1067.97571	437.77737	987.87378	1030.18909	380.85251	1107.98767	948.52191	435.66190	1157.01978	839.67426	431.36514	1084.26453	814.55652	420.72275	1163.37024	760.96100	460.91647	1005.96869	1162.62793	-44.23628	1023.80396	1099.84729	-61.10860	1023.32306	1072.35291	39.91740	1103.21875	1149.96155	-50.38863	1166.01208	1227.42761	-39.82142	1173.23743	1219.14880	38.51353	1239.63940	1275.13220	-20.14311
31671	126.68000	946.94482	1416.60266	184.04317	1024.67163	1356.94421	345.59543	965.73511	1369.81897	13.32653	1087.94495	1310.02173	163.26759	1052.14661	1150.31982	413.18149	1052.52563	1067.97424	437.79987	987.91882	1030.18762	380.86578	1108.02966	948.52875	435.68555	1157.06763	839.68536	431.39725	1084.32422	814.55481	420.75964	1163.43408	760.96924	460.93933	1006.00031	1162.61951	-44.23808	1023.84009	1099.83362	-61.10518	1023.34045	1072.32776	39.90949	1103.25537	1149.95166	-50.38814	1166.04309	1227.41772	-39.83384	1173.25854	1219.13074	38.50214	1239.67432	1275.11853	-20.13950
31672	126.68400	946.97919	1416.59424	184.04677	1024.70801	1356.94275	345.59647	965.77441	1369.80762	13.32597	1087.98315	1310.01526	163.27831	1052.18958	1150.32031	413.19403	1052.56287	1067.97839	437.82178	987.96497	1030.18164	380.88177	1108.07593	948.54047	435.71423	1157.12146	839.69714	431.43259	1084.37915	814.55444	420.79514	1163.49438	760.97858	460.96719	1006.03101	1162.61780	-44.24580	1023.87109	1099.82397	-61.09982	1023.32654	1072.30933	39.89561	1103.28809	1149.94788	-50.38290	1166.08691	1227.38818	-39.82814	1173.25720	1219.11633	38.49246	1239.70996	1275.10730	-20.13756
31673	126.68800	947.01562	1416.58838	184.04604	1024.74097	1356.94678	345.59451	965.81268	1369.80151	13.32402	1088.02075	1310.01514	163.27777	1052.23328	1150.32141	413.20938	1052.60254	1067.98596	437.83444	988.00818	1030.17957	380.89539	1108.12854	948.54938	435.73453	1157.17419	839.71533	431.46295	1084.42505	814.55762	420.82446	1163.55469	760.98517	460.99561	1006.06610	1162.61670	-44.24920	1023.90289	1099.81763	-61.09697	1023.38098	1072.29016	39.89407	1103.32483	1149.94287	-50.37394	1166.13940	1227.35938	-39.83223	1173.28906	1219.10608	38.49595	1239.74487	1275.10059	-20.13793
31674	126.69200	947.05682	1416.59106	184.04526	1024.77710	1356.95032	345.59140	965.85480	1369.80103	13.31761	1088.06274	1310.01709	163.27824	1052.28198	1150.33118	413.22028	1052.65125	1068.00928	437.85461	988.05426	1030.18066	380.90622	1108.18384	948.56049	435.74768	1157.23889	839.74103	431.49353	1084.47937	814.56885	420.84433	1163.62134	760.99799	461.02924	1006.10962	1162.61414	-44.24266	1023.93793	1099.81506	-61.09746	1023.47742	1072.27686	39.90926	1103.36340	1149.93701	-50.37654	1166.19373	1227.35071	-39.82705	1173.35364	1219.09546	38.49170	1239.78918	1275.09436	-20.14477
31675	126.69600	947.09772	1416.60156	184.04601	1024.80920	1356.95593	345.58817	965.89746	1369.80237	13.31367	1088.10999	1310.02637	163.27289	1052.32544	1150.34546	413.22565	1052.70642	1068.02612	437.86588	988.10040	1030.18591	380.91803	1108.24280	948.58057	435.76715	1157.30811	839.76611	431.51587	1084.53674	814.58569	420.87064	1163.69495	761.02106	461.05890	1006.15564	1162.61780	-44.23547	1023.97418	1099.81653	-61.10210	1023.48291	1072.27063	39.90081	1103.40894	1149.93115	-50.36970	1166.24646	1227.34692	-39.82846	1173.38928	1219.10571	38.47642	1239.83997	1275.09851	-20.14220
31676	126.70000	947.13757	1416.61450	184.04111	1024.84241	1356.96472	345.58185	965.93744	1369.80725	13.31283	1088.15808	1310.04407	163.26637	1052.36829	1150.35522	413.22409	1052.75537	1068.03149	437.87521	988.15448	1030.19128	380.93497	1108.30042	948.60461	435.78592	1157.37354	839.79407	431.53989	1084.59229	814.61444	420.89511	1163.76660	761.04242	461.08429	1006.20172	1162.62878	-44.23131	1024.01440	1099.81873	-61.10733	1023.48065	1072.27625	39.88529	1103.44629	1149.93408	-50.36575	1166.28723	1227.34668	-39.84071	1173.45044	1219.11646	38.48830	1239.88782	1275.10400	-20.14453
31677	126.70400	947.18158	1416.62830	184.03716	1024.88037	1356.97668	345.57239	965.98071	1369.81653	13.31002	1088.20630	1310.05811	163.26244	1052.41638	1150.37732	413.22690	1052.80322	1068.03748	437.87915	988.20685	1030.19812	380.94644	1108.35791	948.62982	435.79340	1157.44116	839.81842	431.56439	1084.64307	814.64130	420.92108	1163.83643	761.06647	461.11707	1006.24646	1162.63489	-44.23061	1024.05762	1099.82019	-61.11148	1023.41949	1072.26257	39.83936	1103.48633	1149.94043	-50.36596	1166.32532	1227.34375	-39.84343	1173.49500	1219.12231	38.48313	1239.94250	1275.10876	-20.15911
31678	126.70800	947.22534	1416.63623	184.03374	1024.92175	1356.98718	345.56757	966.02637	1369.82422	13.31056	1088.25293	1310.06482	163.26038	1052.46326	1150.39429	413.22650	1052.85815	1068.04602	437.89072	988.25964	1030.20288	380.95432	1108.41382	948.64545	435.80927	1157.50659	839.84076	431.59293	1084.70007	814.66260	420.95068	1163.89844	761.09064	461.15311	1006.29138	1162.64197	-44.23513	1024.09497	1099.82629	-61.11519	1023.46112	1072.27478	39.83006	1103.52576	1149.93970	-50.36583	1166.37329	1227.33972	-39.84015	1173.53052	1219.12646	38.47077	1239.99524	1275.11292	-20.16602
